<mxfile host="app.diagrams.net" modified="2023-11-28T00:27:15.190Z" agent="Mozilla/5.0 (Macintosh; Intel Mac OS X 10_15_7) AppleWebKit/537.36 (KHTML, like Gecko) Chrome/119.0.0.0 Safari/537.36" etag="XYiWAUVmojKzqHoRpWSX" version="22.1.4" type="device">
  <diagram name="Page-1" id="2vYwZeGbdKvME0MV8V6y">
    <mxGraphModel dx="1489" dy="769" grid="1" gridSize="10" guides="1" tooltips="1" connect="1" arrows="1" fold="1" page="1" pageScale="1" pageWidth="1100" pageHeight="850" math="0" shadow="0">
      <root>
        <mxCell id="0" />
        <mxCell id="1" parent="0" />
        <mxCell id="pHQ8c7XN6dK7GfVgj07B-7" style="edgeStyle=orthogonalEdgeStyle;rounded=0;orthogonalLoop=1;jettySize=auto;html=1;entryX=0.5;entryY=0;entryDx=0;entryDy=0;" edge="1" parent="1" source="ugLN8sUA2EvXU6RA5rcq-1" target="ugLN8sUA2EvXU6RA5rcq-3">
          <mxGeometry relative="1" as="geometry" />
        </mxCell>
        <mxCell id="ugLN8sUA2EvXU6RA5rcq-1" value="&lt;font style=&quot;font-size: 19px;&quot;&gt;Availability&lt;/font&gt;" style="rounded=0;whiteSpace=wrap;html=1;" parent="1" vertex="1">
          <mxGeometry x="130" y="205" width="140" height="70" as="geometry" />
        </mxCell>
        <mxCell id="ugLN8sUA2EvXU6RA5rcq-2" value="&lt;font style=&quot;font-size: 19px;&quot;&gt;Vaccine&lt;/font&gt;" style="rounded=0;whiteSpace=wrap;html=1;" parent="1" vertex="1">
          <mxGeometry x="800" y="205" width="140" height="70" as="geometry" />
        </mxCell>
        <mxCell id="ugLN8sUA2EvXU6RA5rcq-3" value="&lt;font style=&quot;font-size: 19px;&quot;&gt;Caregiver&lt;/font&gt;" style="rounded=0;whiteSpace=wrap;html=1;" parent="1" vertex="1">
          <mxGeometry x="270" y="515" width="140" height="70" as="geometry" />
        </mxCell>
        <mxCell id="ugLN8sUA2EvXU6RA5rcq-4" value="&lt;font style=&quot;font-size: 19px;&quot;&gt;Patient&lt;/font&gt;" style="rounded=0;whiteSpace=wrap;html=1;" parent="1" vertex="1">
          <mxGeometry x="640" y="515" width="140" height="70" as="geometry" />
        </mxCell>
        <mxCell id="ugLN8sUA2EvXU6RA5rcq-7" value="Looks" style="rhombus;whiteSpace=wrap;html=1;" parent="1" vertex="1">
          <mxGeometry x="145" y="365" width="110" height="60" as="geometry" />
        </mxCell>
        <mxCell id="pHQ8c7XN6dK7GfVgj07B-11" style="edgeStyle=orthogonalEdgeStyle;rounded=0;orthogonalLoop=1;jettySize=auto;html=1;exitX=0;exitY=1;exitDx=0;exitDy=0;entryX=1;entryY=0.5;entryDx=0;entryDy=0;" edge="1" parent="1" source="ugLN8sUA2EvXU6RA5rcq-14" target="ugLN8sUA2EvXU6RA5rcq-3">
          <mxGeometry relative="1" as="geometry" />
        </mxCell>
        <mxCell id="pHQ8c7XN6dK7GfVgj07B-13" style="edgeStyle=orthogonalEdgeStyle;rounded=0;orthogonalLoop=1;jettySize=auto;html=1;" edge="1" parent="1" source="ugLN8sUA2EvXU6RA5rcq-14" target="ugLN8sUA2EvXU6RA5rcq-4">
          <mxGeometry relative="1" as="geometry">
            <Array as="points">
              <mxPoint x="530" y="420" />
              <mxPoint x="710" y="420" />
            </Array>
          </mxGeometry>
        </mxCell>
        <mxCell id="ugLN8sUA2EvXU6RA5rcq-14" value="&lt;font style=&quot;font-size: 19px;&quot;&gt;Appointment&lt;/font&gt;" style="rounded=0;whiteSpace=wrap;html=1;" parent="1" vertex="1">
          <mxGeometry x="460" y="205" width="140" height="70" as="geometry" />
        </mxCell>
        <mxCell id="ugLN8sUA2EvXU6RA5rcq-24" value="&lt;u&gt;Time&lt;/u&gt;" style="ellipse;whiteSpace=wrap;html=1;" parent="1" vertex="1">
          <mxGeometry y="115" width="130" height="50" as="geometry" />
        </mxCell>
        <mxCell id="ugLN8sUA2EvXU6RA5rcq-26" value="" style="endArrow=none;html=1;rounded=0;exitX=0;exitY=0.5;exitDx=0;exitDy=0;entryX=0.5;entryY=1;entryDx=0;entryDy=0;" parent="1" source="ugLN8sUA2EvXU6RA5rcq-1" edge="1" target="ugLN8sUA2EvXU6RA5rcq-24">
          <mxGeometry width="50" height="50" relative="1" as="geometry">
            <mxPoint x="70" y="215" as="sourcePoint" />
            <mxPoint x="120" y="165" as="targetPoint" />
          </mxGeometry>
        </mxCell>
        <mxCell id="ugLN8sUA2EvXU6RA5rcq-28" value="&lt;u&gt;Username&lt;/u&gt;" style="ellipse;whiteSpace=wrap;html=1;" parent="1" vertex="1">
          <mxGeometry x="140" y="65" width="130" height="50" as="geometry" />
        </mxCell>
        <mxCell id="ugLN8sUA2EvXU6RA5rcq-29" value="" style="endArrow=none;html=1;rounded=0;exitX=0.7;exitY=-0.05;exitDx=0;exitDy=0;exitPerimeter=0;entryX=0.5;entryY=1;entryDx=0;entryDy=0;" parent="1" source="ugLN8sUA2EvXU6RA5rcq-1" edge="1" target="ugLN8sUA2EvXU6RA5rcq-28">
          <mxGeometry width="50" height="50" relative="1" as="geometry">
            <mxPoint x="270" y="240" as="sourcePoint" />
            <mxPoint x="260" y="165" as="targetPoint" />
          </mxGeometry>
        </mxCell>
        <mxCell id="ugLN8sUA2EvXU6RA5rcq-38" value="Caregiver Name" style="ellipse;whiteSpace=wrap;html=1;" parent="1" vertex="1">
          <mxGeometry x="370" y="85" width="130" height="50" as="geometry" />
        </mxCell>
        <mxCell id="ugLN8sUA2EvXU6RA5rcq-39" value="" style="endArrow=none;html=1;rounded=0;exitX=0.2;exitY=-0.021;exitDx=0;exitDy=0;exitPerimeter=0;entryX=0.454;entryY=0.96;entryDx=0;entryDy=0;entryPerimeter=0;" parent="1" source="ugLN8sUA2EvXU6RA5rcq-14" edge="1" target="ugLN8sUA2EvXU6RA5rcq-38">
          <mxGeometry width="50" height="50" relative="1" as="geometry">
            <mxPoint x="418" y="205" as="sourcePoint" />
            <mxPoint x="450" y="168" as="targetPoint" />
          </mxGeometry>
        </mxCell>
        <mxCell id="ugLN8sUA2EvXU6RA5rcq-40" value="&lt;u&gt;Username&lt;/u&gt;" style="ellipse;whiteSpace=wrap;html=1;" parent="1" vertex="1">
          <mxGeometry x="800" y="485" width="130" height="50" as="geometry" />
        </mxCell>
        <mxCell id="ugLN8sUA2EvXU6RA5rcq-41" value="" style="endArrow=none;html=1;rounded=0;exitX=0.7;exitY=-0.05;exitDx=0;exitDy=0;exitPerimeter=0;" parent="1" edge="1">
          <mxGeometry width="50" height="50" relative="1" as="geometry">
            <mxPoint x="778" y="562" as="sourcePoint" />
            <mxPoint x="810" y="525" as="targetPoint" />
          </mxGeometry>
        </mxCell>
        <mxCell id="ugLN8sUA2EvXU6RA5rcq-44" value="Hash" style="ellipse;whiteSpace=wrap;html=1;" parent="1" vertex="1">
          <mxGeometry x="816" y="555" width="130" height="50" as="geometry" />
        </mxCell>
        <mxCell id="ugLN8sUA2EvXU6RA5rcq-45" value="" style="endArrow=none;html=1;rounded=0;exitX=1;exitY=1;exitDx=0;exitDy=0;" parent="1" source="ugLN8sUA2EvXU6RA5rcq-4" edge="1">
          <mxGeometry width="50" height="50" relative="1" as="geometry">
            <mxPoint x="794" y="632" as="sourcePoint" />
            <mxPoint x="826" y="595" as="targetPoint" />
          </mxGeometry>
        </mxCell>
        <mxCell id="ugLN8sUA2EvXU6RA5rcq-46" value="Salt" style="ellipse;whiteSpace=wrap;html=1;" parent="1" vertex="1">
          <mxGeometry x="702" y="655" width="130" height="50" as="geometry" />
        </mxCell>
        <mxCell id="ugLN8sUA2EvXU6RA5rcq-48" value="" style="endArrow=none;html=1;rounded=0;exitX=0.438;exitY=-0.09;exitDx=0;exitDy=0;exitPerimeter=0;" parent="1" source="ugLN8sUA2EvXU6RA5rcq-46" edge="1">
          <mxGeometry width="50" height="50" relative="1" as="geometry">
            <mxPoint x="670" y="635" as="sourcePoint" />
            <mxPoint x="720" y="585" as="targetPoint" />
          </mxGeometry>
        </mxCell>
        <mxCell id="ugLN8sUA2EvXU6RA5rcq-49" value="&lt;u&gt;Username&lt;/u&gt;" style="ellipse;whiteSpace=wrap;html=1;" parent="1" vertex="1">
          <mxGeometry x="430" y="645" width="130" height="50" as="geometry" />
        </mxCell>
        <mxCell id="ugLN8sUA2EvXU6RA5rcq-50" value="Hash" style="ellipse;whiteSpace=wrap;html=1;" parent="1" vertex="1">
          <mxGeometry x="280" y="685" width="130" height="50" as="geometry" />
        </mxCell>
        <mxCell id="ugLN8sUA2EvXU6RA5rcq-51" value="Salt" style="ellipse;whiteSpace=wrap;html=1;" parent="1" vertex="1">
          <mxGeometry x="135" y="645" width="130" height="50" as="geometry" />
        </mxCell>
        <mxCell id="ugLN8sUA2EvXU6RA5rcq-52" value="" style="endArrow=none;html=1;rounded=0;exitX=0.5;exitY=0;exitDx=0;exitDy=0;" parent="1" source="ugLN8sUA2EvXU6RA5rcq-51" edge="1">
          <mxGeometry width="50" height="50" relative="1" as="geometry">
            <mxPoint x="220" y="635" as="sourcePoint" />
            <mxPoint x="270" y="585" as="targetPoint" />
          </mxGeometry>
        </mxCell>
        <mxCell id="ugLN8sUA2EvXU6RA5rcq-53" value="" style="endArrow=none;html=1;rounded=0;exitX=0.5;exitY=0;exitDx=0;exitDy=0;" parent="1" source="ugLN8sUA2EvXU6RA5rcq-50" edge="1">
          <mxGeometry width="50" height="50" relative="1" as="geometry">
            <mxPoint x="300" y="635" as="sourcePoint" />
            <mxPoint x="350" y="585" as="targetPoint" />
          </mxGeometry>
        </mxCell>
        <mxCell id="ugLN8sUA2EvXU6RA5rcq-54" value="" style="endArrow=none;html=1;rounded=0;entryX=1;entryY=1;entryDx=0;entryDy=0;exitX=0.5;exitY=0;exitDx=0;exitDy=0;" parent="1" source="ugLN8sUA2EvXU6RA5rcq-49" target="ugLN8sUA2EvXU6RA5rcq-3" edge="1">
          <mxGeometry width="50" height="50" relative="1" as="geometry">
            <mxPoint x="470" y="615" as="sourcePoint" />
            <mxPoint x="520" y="565" as="targetPoint" />
          </mxGeometry>
        </mxCell>
        <mxCell id="ugLN8sUA2EvXU6RA5rcq-55" value="&lt;u&gt;Vaccine Name&lt;/u&gt;" style="ellipse;whiteSpace=wrap;html=1;" parent="1" vertex="1">
          <mxGeometry x="740" y="135" width="130" height="50" as="geometry" />
        </mxCell>
        <mxCell id="ugLN8sUA2EvXU6RA5rcq-57" value="Doses" style="ellipse;whiteSpace=wrap;html=1;" parent="1" vertex="1">
          <mxGeometry x="920" y="135" width="130" height="50" as="geometry" />
        </mxCell>
        <mxCell id="ugLN8sUA2EvXU6RA5rcq-58" value="" style="endArrow=none;html=1;rounded=0;" parent="1" source="ugLN8sUA2EvXU6RA5rcq-2" edge="1">
          <mxGeometry width="50" height="50" relative="1" as="geometry">
            <mxPoint x="790" y="235" as="sourcePoint" />
            <mxPoint x="840" y="185" as="targetPoint" />
          </mxGeometry>
        </mxCell>
        <mxCell id="ugLN8sUA2EvXU6RA5rcq-59" value="" style="endArrow=none;html=1;rounded=0;" parent="1" edge="1">
          <mxGeometry width="50" height="50" relative="1" as="geometry">
            <mxPoint x="940" y="235" as="sourcePoint" />
            <mxPoint x="990" y="185" as="targetPoint" />
          </mxGeometry>
        </mxCell>
        <mxCell id="ugLN8sUA2EvXU6RA5rcq-60" value="Patient Name" style="ellipse;whiteSpace=wrap;html=1;" parent="1" vertex="1">
          <mxGeometry x="490" y="50" width="130" height="50" as="geometry" />
        </mxCell>
        <mxCell id="ugLN8sUA2EvXU6RA5rcq-61" value="" style="endArrow=none;html=1;rounded=0;exitX=0.707;exitY=-0.036;exitDx=0;exitDy=0;exitPerimeter=0;entryX=0.5;entryY=1;entryDx=0;entryDy=0;" parent="1" source="ugLN8sUA2EvXU6RA5rcq-14" target="ugLN8sUA2EvXU6RA5rcq-60" edge="1">
          <mxGeometry width="50" height="50" relative="1" as="geometry">
            <mxPoint x="560" y="225" as="sourcePoint" />
            <mxPoint x="610" y="175" as="targetPoint" />
          </mxGeometry>
        </mxCell>
        <mxCell id="ugLN8sUA2EvXU6RA5rcq-62" value="&lt;u&gt;Appointment ID&lt;/u&gt;" style="ellipse;whiteSpace=wrap;html=1;" parent="1" vertex="1">
          <mxGeometry x="255" y="135" width="130" height="50" as="geometry" />
        </mxCell>
        <mxCell id="ugLN8sUA2EvXU6RA5rcq-64" value="Time" style="ellipse;whiteSpace=wrap;html=1;" parent="1" vertex="1">
          <mxGeometry x="600" y="295" width="130" height="50" as="geometry" />
        </mxCell>
        <mxCell id="ugLN8sUA2EvXU6RA5rcq-65" value="" style="endArrow=none;html=1;rounded=0;exitX=0.5;exitY=0;exitDx=0;exitDy=0;entryX=1;entryY=1;entryDx=0;entryDy=0;" parent="1" source="ugLN8sUA2EvXU6RA5rcq-64" target="ugLN8sUA2EvXU6RA5rcq-14" edge="1">
          <mxGeometry width="50" height="50" relative="1" as="geometry">
            <mxPoint x="590" y="305" as="sourcePoint" />
            <mxPoint x="640" y="255" as="targetPoint" />
          </mxGeometry>
        </mxCell>
        <mxCell id="ugLN8sUA2EvXU6RA5rcq-66" value="Vaccine Name" style="ellipse;whiteSpace=wrap;html=1;" parent="1" vertex="1">
          <mxGeometry x="640" y="80" width="130" height="50" as="geometry" />
        </mxCell>
        <mxCell id="ugLN8sUA2EvXU6RA5rcq-67" value="" style="endArrow=none;html=1;rounded=0;entryX=0.431;entryY=1.04;entryDx=0;entryDy=0;entryPerimeter=0;" parent="1" target="ugLN8sUA2EvXU6RA5rcq-66" edge="1">
          <mxGeometry width="50" height="50" relative="1" as="geometry">
            <mxPoint x="600" y="225" as="sourcePoint" />
            <mxPoint x="620" y="205" as="targetPoint" />
          </mxGeometry>
        </mxCell>
        <mxCell id="pHQ8c7XN6dK7GfVgj07B-1" value="" style="endArrow=classic;html=1;rounded=0;entryX=0;entryY=0.5;entryDx=0;entryDy=0;" edge="1" parent="1" target="ugLN8sUA2EvXU6RA5rcq-2">
          <mxGeometry width="50" height="50" relative="1" as="geometry">
            <mxPoint x="600" y="240" as="sourcePoint" />
            <mxPoint x="650" y="190" as="targetPoint" />
          </mxGeometry>
        </mxCell>
        <mxCell id="ugLN8sUA2EvXU6RA5rcq-71" value="Takes" style="rhombus;whiteSpace=wrap;html=1;" parent="1" vertex="1">
          <mxGeometry x="655" y="209" width="110" height="60" as="geometry" />
        </mxCell>
        <mxCell id="pHQ8c7XN6dK7GfVgj07B-2" value="Takes" style="rhombus;whiteSpace=wrap;html=1;" vertex="1" parent="1">
          <mxGeometry x="560" y="390" width="110" height="60" as="geometry" />
        </mxCell>
        <mxCell id="pHQ8c7XN6dK7GfVgj07B-12" value="Has" style="rhombus;whiteSpace=wrap;html=1;" vertex="1" parent="1">
          <mxGeometry x="406" y="411" width="110" height="60" as="geometry" />
        </mxCell>
        <mxCell id="pHQ8c7XN6dK7GfVgj07B-15" value="" style="endArrow=none;html=1;rounded=0;exitX=0;exitY=0.25;exitDx=0;exitDy=0;entryX=1;entryY=1;entryDx=0;entryDy=0;" edge="1" parent="1" source="ugLN8sUA2EvXU6RA5rcq-14" target="ugLN8sUA2EvXU6RA5rcq-62">
          <mxGeometry width="50" height="50" relative="1" as="geometry">
            <mxPoint x="350" y="260" as="sourcePoint" />
            <mxPoint x="400" y="210" as="targetPoint" />
          </mxGeometry>
        </mxCell>
      </root>
    </mxGraphModel>
  </diagram>
</mxfile>
